<svg width="40" height="41" viewBox="0 0 40 41" fill="none" xmlns="http://www.w3.org/2000/svg">
<g clip-path="url(#clip0_31_263)">
<path fill-rule="evenodd" clip-rule="evenodd" d="M35.6041 25.0959C35.6041 25.0959 38.8381 28.2899 39.6381 29.7679C39.6536 29.7892 39.6658 29.8129 39.6741 29.8379C40.0001 30.3839 40.0801 30.8119 39.9201 31.1279C39.6501 31.6499 38.7361 31.9119 38.4261 31.9339H32.7101C32.3121 31.9339 31.4841 31.8299 30.4761 31.1339C29.7061 30.5959 28.9401 29.7099 28.1981 28.8439C27.0901 27.5579 26.1321 26.4419 25.1621 26.4419C25.0395 26.4417 24.9179 26.4619 24.8021 26.5019C24.0681 26.7339 23.1361 27.7799 23.1361 30.5659C23.1361 31.4379 22.4481 31.9339 21.9661 31.9339H19.3481C18.4561 31.9339 13.8121 31.6219 9.69406 27.2799C4.64806 21.9639 0.116058 11.2999 0.072058 11.2059C-0.209942 10.5159 0.382058 10.1399 1.02206 10.1399H6.79406C7.56806 10.1399 7.82006 10.6079 7.99606 11.0279C8.20006 11.5099 8.95606 13.4379 10.1961 15.6039C12.2041 19.1279 13.4381 20.5619 14.4241 20.5619C14.6093 20.5625 14.7914 20.5142 14.9521 20.4219C16.2401 19.7139 16.0001 15.1139 15.9401 14.1659C15.9401 13.9819 15.9381 12.1119 15.2781 11.2079C14.8061 10.5599 14.0021 10.3079 13.5161 10.2159C13.6461 10.0279 13.9221 9.73992 14.2761 9.56992C15.1581 9.12992 16.7521 9.06592 18.3341 9.06592H19.2121C20.9281 9.08992 21.3721 9.19992 21.9961 9.35792C23.2521 9.65792 23.2761 10.4719 23.1661 13.2439C23.1341 14.0359 23.1001 14.9279 23.1001 15.9779C23.1001 16.2019 23.0901 16.4519 23.0901 16.7059C23.0521 18.1279 23.0021 19.7299 24.0061 20.3879C24.1363 20.469 24.2866 20.512 24.4401 20.5119C24.7881 20.5119 25.8301 20.5119 28.6561 15.6619C29.8961 13.5199 30.8561 10.9939 30.9221 10.8039C30.9781 10.6979 31.1461 10.3999 31.3501 10.2799C31.4952 10.2027 31.6577 10.1641 31.8221 10.1679H38.6121C39.3521 10.1679 39.8541 10.2799 39.9521 10.5599C40.1161 11.0139 39.9201 12.3999 36.8201 16.5919C36.2981 17.2899 35.8401 17.8939 35.4381 18.4219C32.6281 22.1099 32.6281 22.2959 35.6041 25.0959Z" fill="white"/>
</g>
<defs>
<clipPath id="clip0_31_263">
<rect width="40" height="40" fill="white" transform="translate(0 0.5)"/>
</clipPath>
</defs>
</svg>
