<svg width="40" height="41" viewBox="0 0 40 41" fill="none" xmlns="http://www.w3.org/2000/svg">
<g clip-path="url(#clip0_31_261)">
<path d="M29.16 24.4713C28.6587 24.2175 26.2175 23.0263 25.7612 22.8563C25.305 22.6938 24.9737 22.6087 24.6412 23.11C24.3162 23.5987 23.3587 24.7175 23.0662 25.0438C22.7737 25.37 22.4862 25.395 21.9925 25.1737C21.4912 24.92 19.89 24.3987 17.9888 22.6937C16.5037 21.3725 15.515 19.745 15.2213 19.2437C14.9288 18.7488 15.1888 18.4688 15.4362 18.2213C15.6637 17.9937 15.9375 17.6488 16.1912 17.3488C16.4325 17.0487 16.51 16.8475 16.6863 16.5225C16.8487 16.1712 16.765 15.8975 16.6413 15.65C16.5175 15.4025 15.5212 12.9488 15.105 11.9713C14.7075 11.0013 14.2912 11.125 13.985 11.125C13.6987 11.0988 13.3663 11.0988 13.035 11.0988C12.7038 11.0988 12.1625 11.2225 11.7062 11.6975C11.25 12.1988 9.96125 13.3962 9.96125 15.8188C9.96125 18.2475 11.745 20.5975 11.9925 20.9487C12.2463 21.2737 15.5013 26.2737 20.495 28.4225C21.6863 28.9237 22.6112 29.2237 23.3337 29.4713C24.525 29.8487 25.6125 29.7962 26.4713 29.6725C27.4212 29.5162 29.4137 28.4675 29.8312 27.2962C30.255 26.1175 30.255 25.1412 30.1312 24.92C30.0075 24.6925 29.6825 24.5687 29.1812 24.3475L29.16 24.4713ZM20.1038 36.75H20.0775C17.1213 36.75 14.1988 35.9487 11.6463 34.4512L11.0475 34.0938L4.7975 35.7212L6.4775 29.64L6.07375 29.015C4.42308 26.3904 3.54737 23.353 3.5475 20.2525C3.5475 11.1775 10.9763 3.775 20.1163 3.775C24.5438 3.775 28.6975 5.5 31.8225 8.625C33.3641 10.1482 34.5869 11.9632 35.4196 13.9641C36.2523 15.9649 36.6782 18.1116 36.6725 20.2787C36.66 29.3475 29.2375 36.75 20.11 36.75H20.1038ZM34.1987 6.24875C30.3962 2.57625 25.3962 0.5 20.0775 0.5C9.1075 0.5 0.175 9.39375 0.16875 20.3237C0.16875 23.8138 1.08 27.2188 2.825 30.2325L0 40.5L10.56 37.7463C13.4854 39.3235 16.7553 40.1531 20.0788 40.1613H20.085C31.0613 40.1613 39.9938 31.2675 40 20.33C40 15.0375 37.9363 10.0562 34.1738 6.3125L34.1987 6.24875Z" fill="white"/>
</g>
<defs>
<clipPath id="clip0_31_261">
<rect width="40" height="40" fill="white" transform="translate(0 0.5)"/>
</clipPath>
</defs>
</svg>
