<svg width="50" height="50" viewBox="0 0 50 50" fill="none" xmlns="http://www.w3.org/2000/svg">
<path fill-rule="evenodd" clip-rule="evenodd" d="M46.875 6.25C46.875 5.4212 46.5458 4.62634 45.9597 4.04029C45.3737 3.45424 44.5788 3.125 43.75 3.125H6.25C5.4212 3.125 4.62634 3.45424 4.04029 4.04029C3.45424 4.62634 3.125 5.4212 3.125 6.25V43.75C3.125 44.5788 3.45424 45.3737 4.04029 45.9597C4.62634 46.5458 5.4212 46.875 6.25 46.875H43.75C44.5788 46.875 45.3737 46.5458 45.9597 45.9597C46.5458 45.3737 46.875 44.5788 46.875 43.75V6.25ZM0 6.25C0 4.5924 0.65848 3.00269 1.83058 1.83058C3.00269 0.65848 4.5924 0 6.25 0L43.75 0C45.4076 0 46.9973 0.65848 48.1694 1.83058C49.3415 3.00269 50 4.5924 50 6.25V43.75C50 45.4076 49.3415 46.9973 48.1694 48.1694C46.9973 49.3415 45.4076 50 43.75 50H6.25C4.5924 50 3.00269 49.3415 1.83058 48.1694C0.65848 46.9973 0 45.4076 0 43.75V6.25ZM14.0625 23.4375C13.6481 23.4375 13.2507 23.6021 12.9576 23.8951C12.6646 24.1882 12.5 24.5856 12.5 25C12.5 25.4144 12.6646 25.8118 12.9576 26.1049C13.2507 26.3979 13.6481 26.5625 14.0625 26.5625H32.1656L25.4562 33.2687C25.311 33.414 25.1957 33.5865 25.1171 33.7763C25.0385 33.9661 24.998 34.1696 24.998 34.375C24.998 34.5804 25.0385 34.7839 25.1171 34.9737C25.1957 35.1635 25.311 35.336 25.4562 35.4813C25.6015 35.6265 25.774 35.7418 25.9638 35.8204C26.1536 35.899 26.357 35.9395 26.5625 35.9395C26.768 35.9395 26.9714 35.899 27.1612 35.8204C27.351 35.7418 27.5235 35.6265 27.6688 35.4813L37.0438 26.1063C37.1893 25.9611 37.3047 25.7887 37.3835 25.5989C37.4622 25.409 37.5028 25.2055 37.5028 25C37.5028 24.7945 37.4622 24.591 37.3835 24.4011C37.3047 24.2113 37.1893 24.0389 37.0438 23.8937L27.6688 14.5187C27.5235 14.3735 27.351 14.2582 27.1612 14.1796C26.9714 14.101 26.768 14.0605 26.5625 14.0605C26.357 14.0605 26.1536 14.101 25.9638 14.1796C25.774 14.2582 25.6015 14.3735 25.4562 14.5187C25.311 14.664 25.1957 14.8365 25.1171 15.0263C25.0385 15.2161 24.998 15.4195 24.998 15.625C24.998 15.8305 25.0385 16.0339 25.1171 16.2237C25.1957 16.4135 25.311 16.586 25.4562 16.7313L32.1656 23.4375H14.0625Z" fill="#AE0202"/>
</svg>
