<svg width="50" height="50" viewBox="0 0 50 50" fill="none" xmlns="http://www.w3.org/2000/svg">
<path fill-rule="evenodd" clip-rule="evenodd" d="M3.125 6.25C3.125 5.4212 3.45424 4.62634 4.04029 4.04029C4.62634 3.45424 5.4212 3.125 6.25 3.125H43.75C44.5788 3.125 45.3737 3.45424 45.9597 4.04029C46.5458 4.62634 46.875 5.4212 46.875 6.25V43.75C46.875 44.5788 46.5458 45.3737 45.9597 45.9597C45.3737 46.5458 44.5788 46.875 43.75 46.875H6.25C5.4212 46.875 4.62634 46.5458 4.04029 45.9597C3.45424 45.3737 3.125 44.5788 3.125 43.75V6.25ZM50 6.25C50 4.5924 49.3415 3.00269 48.1694 1.83058C46.9973 0.65848 45.4076 0 43.75 0L6.25 0C4.5924 0 3.00269 0.65848 1.83059 1.83058C0.658482 3.00269 0 4.5924 0 6.25V43.75C0 45.4076 0.658482 46.9973 1.83059 48.1694C3.00269 49.3415 4.5924 50 6.25 50H43.75C45.4076 50 46.9973 49.3415 48.1694 48.1694C49.3415 46.9973 50 45.4076 50 43.75V6.25ZM35.9375 23.4375C36.3519 23.4375 36.7493 23.6021 37.0424 23.8951C37.3354 24.1882 37.5 24.5856 37.5 25C37.5 25.4144 37.3354 25.8118 37.0424 26.1049C36.7493 26.3979 36.3519 26.5625 35.9375 26.5625H17.8344L24.5438 33.2687C24.689 33.414 24.8043 33.5865 24.8829 33.7763C24.9615 33.9661 25.002 34.1696 25.002 34.375C25.002 34.5804 24.9615 34.7839 24.8829 34.9737C24.8043 35.1635 24.689 35.336 24.5438 35.4813C24.3985 35.6265 24.226 35.7418 24.0362 35.8204C23.8464 35.899 23.643 35.9395 23.4375 35.9395C23.232 35.9395 23.0286 35.899 22.8388 35.8204C22.649 35.7418 22.4765 35.6265 22.3312 35.4813L12.9562 26.1063C12.8107 25.9611 12.6953 25.7887 12.6165 25.5989C12.5378 25.409 12.4972 25.2055 12.4972 25C12.4972 24.7945 12.5378 24.591 12.6165 24.4011C12.6953 24.2113 12.8107 24.0389 12.9562 23.8937L22.3312 14.5187C22.4765 14.3735 22.649 14.2582 22.8388 14.1796C23.0286 14.101 23.232 14.0605 23.4375 14.0605C23.643 14.0605 23.8464 14.101 24.0362 14.1796C24.226 14.2582 24.3985 14.3735 24.5438 14.5187C24.689 14.664 24.8043 14.8365 24.8829 15.0263C24.9615 15.2161 25.002 15.4195 25.002 15.625C25.002 15.8305 24.9615 16.0339 24.8829 16.2237C24.8043 16.4135 24.689 16.586 24.5438 16.7313L17.8344 23.4375H35.9375Z" fill="#AE0202"/>
</svg>
