<svg width="85" height="85" viewBox="0 0 85 85" fill="none" xmlns="http://www.w3.org/2000/svg">
<path d="M66.4062 34.5312C66.4062 28.1909 63.8876 22.1103 59.4043 17.627C54.921 13.1437 48.8403 10.625 42.5 10.625C36.1597 10.625 30.079 13.1437 25.5957 17.627C21.1124 22.1103 18.5938 28.1909 18.5938 34.5312C18.5938 44.3381 26.4403 57.12 42.5 72.4306C58.5597 57.12 66.4062 44.3381 66.4062 34.5312ZM42.5 79.6875C23.0191 61.9809 13.2812 46.9253 13.2812 34.5312C13.2812 26.782 16.3596 19.3501 21.8392 13.8705C27.3188 8.3909 34.7507 5.3125 42.5 5.3125C50.2493 5.3125 57.6812 8.3909 63.1608 13.8705C68.6404 19.3501 71.7188 26.782 71.7188 34.5312C71.7188 46.9253 61.9809 61.9809 42.5 79.6875Z" fill="#AE0202"/>
<path d="M42.5 37.1875C43.909 37.1875 45.2602 36.6278 46.2565 35.6315C47.2528 34.6352 47.8125 33.284 47.8125 31.875C47.8125 30.466 47.2528 29.1148 46.2565 28.1185C45.2602 27.1222 43.909 26.5625 42.5 26.5625C41.091 26.5625 39.7398 27.1222 38.7435 28.1185C37.7472 29.1148 37.1875 30.466 37.1875 31.875C37.1875 33.284 37.7472 34.6352 38.7435 35.6315C39.7398 36.6278 41.091 37.1875 42.5 37.1875ZM42.5 42.5C39.6821 42.5 36.9796 41.3806 34.987 39.388C32.9944 37.3954 31.875 34.6929 31.875 31.875C31.875 29.0571 32.9944 26.3546 34.987 24.362C36.9796 22.3694 39.6821 21.25 42.5 21.25C45.3179 21.25 48.0204 22.3694 50.013 24.362C52.0056 26.3546 53.125 29.0571 53.125 31.875C53.125 34.6929 52.0056 37.3954 50.013 39.388C48.0204 41.3806 45.3179 42.5 42.5 42.5ZM71.1875 58.4375L79.6875 79.6875H55.7812V74.375H29.2188V79.6875H5.3125L13.8125 58.4375H71.1875ZM65.4659 58.4375H19.5341L13.1591 74.375H71.8409L65.4659 58.4375Z" fill="#AE0202"/>
</svg>
