<svg width="85" height="85" viewBox="0 0 85 85" fill="none" xmlns="http://www.w3.org/2000/svg">
<path d="M75.5556 14.1666H9.44444C8.19203 14.1666 6.99092 14.6641 6.10533 15.5497C5.21974 16.4353 4.72222 17.6364 4.72222 18.8888V66.1111C4.72222 67.3635 5.21974 68.5646 6.10533 69.4502C6.99092 70.3358 8.19203 70.8333 9.44444 70.8333H75.5556C76.808 70.8333 78.0091 70.3358 78.8947 69.4502C79.7803 68.5646 80.2778 67.3635 80.2778 66.1111V18.8888C80.2778 17.6364 79.7803 16.4353 78.8947 15.5497C78.0091 14.6641 76.808 14.1666 75.5556 14.1666ZM71.9194 66.1111H13.3639L29.8917 49.0166L26.4917 45.7347L9.44444 63.3722V22.4777L38.7931 51.6847C39.6778 52.5642 40.8747 53.0579 42.1222 53.0579C43.3698 53.0579 44.5666 52.5642 45.4514 51.6847L75.5556 21.7458V63.0652L58.1778 45.6875L54.8486 49.0166L71.9194 66.1111ZM12.5375 18.8888H71.7306L42.1222 48.3319L12.5375 18.8888Z" fill="#AE0202"/>
</svg>
