<svg width="85" height="85" viewBox="0 0 85 85" fill="none" xmlns="http://www.w3.org/2000/svg">
<path d="M46.0417 28.3333C48.8596 28.3333 51.5621 29.4527 53.5547 31.4453C55.5473 33.4379 56.6667 36.1404 56.6667 38.9583C56.6667 39.8976 57.0398 40.7985 57.704 41.4627C58.3682 42.1269 59.269 42.5 60.2083 42.5C61.1476 42.5 62.0485 42.1269 62.7127 41.4627C63.3769 40.7985 63.75 39.8976 63.75 38.9583C63.75 34.2618 61.8843 29.7576 58.5633 26.4367C55.2424 23.1157 50.7382 21.25 46.0417 21.25C45.1024 21.25 44.2015 21.6231 43.5373 22.2873C42.8731 22.9515 42.5 23.8524 42.5 24.7917C42.5 25.731 42.8731 26.6318 43.5373 27.296C44.2015 27.9602 45.1024 28.3333 46.0417 28.3333Z" fill="#AE0202"/>
<path d="M46.0416 14.1667C52.6168 14.1667 58.9227 16.7787 63.572 21.428C68.2213 26.0774 70.8333 32.3832 70.8333 38.9584C70.8333 39.8977 71.2064 40.7985 71.8706 41.4627C72.5348 42.1269 73.4357 42.5 74.375 42.5C75.3143 42.5 76.2151 42.1269 76.8793 41.4627C77.5435 40.7985 77.9166 39.8977 77.9166 38.9584C77.9166 30.5046 74.5584 22.3971 68.5807 16.4193C62.6029 10.4416 54.4954 7.08337 46.0416 7.08337C45.1023 7.08337 44.2015 7.45651 43.5373 8.1207C42.8731 8.7849 42.5 9.68573 42.5 10.625C42.5 11.5643 42.8731 12.4652 43.5373 13.1294C44.2015 13.7936 45.1023 14.1667 46.0416 14.1667ZM77.0312 56.3479C76.8364 55.7794 76.5001 55.2698 76.054 54.867C75.6079 54.4643 75.0667 54.1817 74.4812 54.0459L53.2312 49.1938C52.6544 49.063 52.054 49.0788 51.4849 49.2396C50.9157 49.4004 50.3959 49.7013 49.9729 50.1146C49.4771 50.575 49.4416 50.6104 47.1396 55.0021C39.5009 51.4823 33.3802 45.3364 29.8916 37.6834C34.3896 35.4167 34.425 35.4167 34.8854 34.8855C35.2987 34.4624 35.5996 33.9426 35.7604 33.3735C35.9213 32.8043 35.937 32.2039 35.8062 31.6271L30.9541 10.625C30.8183 10.0396 30.5357 9.49833 30.133 9.05223C29.7303 8.60612 29.2206 8.26984 28.6521 8.07504C27.825 7.77963 26.9709 7.5661 26.1021 7.43754C25.2069 7.22998 24.2934 7.11135 23.375 7.08337C19.0542 7.08337 14.9103 8.79981 11.855 11.8551C8.79975 14.9104 7.08331 19.0542 7.08331 23.375C7.10206 37.8346 12.8544 51.6966 23.0789 61.9211C33.3034 72.1456 47.1654 77.8979 61.625 77.9167C63.7644 77.9167 65.8829 77.4953 67.8595 76.6766C69.8361 75.8578 71.6321 74.6578 73.1449 73.145C74.6577 71.6322 75.8578 69.8362 76.6765 67.8596C77.4952 65.883 77.9166 63.7645 77.9166 61.625C77.9177 60.7236 77.8467 59.8235 77.7041 58.9334C77.5553 58.0537 77.3301 57.1886 77.0312 56.3479ZM61.625 70.8334C49.0411 70.824 36.9754 65.8209 28.0772 56.9228C19.1791 48.0247 14.176 35.9589 14.1666 23.375C14.176 20.9357 15.1491 18.5989 16.874 16.8741C18.5989 15.1492 20.9356 14.176 23.375 14.1667H24.5437L28.3333 30.6L26.4208 31.5917C23.375 33.1855 20.9666 34.4605 22.2416 37.223C24.3179 43.1006 27.6773 48.442 32.0759 52.859C36.4745 57.276 41.8018 60.6577 47.6708 62.7584C50.6458 63.9625 51.8146 61.7313 53.4083 58.65L54.4354 56.7021L70.8333 60.4563V61.625C70.824 64.0644 69.8508 66.4011 68.1259 68.126C66.4011 69.8509 64.0643 70.824 61.625 70.8334Z" fill="#AE0202"/>
</svg>
