<svg width="50" height="50" viewBox="0 0 50 50" fill="none" xmlns="http://www.w3.org/2000/svg">
<path d="M44.3408 17.2412L31.9433 15.4395L26.4014 4.20412C26.25 3.8965 26.001 3.64748 25.6933 3.49611C24.9219 3.11525 23.9844 3.43264 23.5986 4.20412L18.0566 15.4395L5.65916 17.2412C5.31737 17.2901 5.00487 17.4512 4.76561 17.6953C4.47636 17.9926 4.31697 18.3926 4.32246 18.8074C4.32796 19.2221 4.49788 19.6177 4.79491 19.9072L13.7646 28.6524L11.6455 41.001C11.5958 41.2882 11.6276 41.5837 11.7373 41.8538C11.8469 42.1239 12.0301 42.3579 12.2659 42.5292C12.5018 42.7005 12.781 42.8023 13.0718 42.823C13.3625 42.8438 13.6533 42.7826 13.9111 42.6465L25 36.8164L36.0889 42.6465C36.3916 42.8076 36.7432 42.8613 37.0801 42.8028C37.9297 42.6563 38.501 41.8506 38.3545 41.001L36.2353 28.6524L45.2051 19.9072C45.4492 19.668 45.6103 19.3555 45.6592 19.0137C45.791 18.1592 45.1953 17.3682 44.3408 17.2412Z" fill="#AE0202"/>
</svg>
