<svg width="25" height="15" viewBox="0 0 25 15" fill="none" xmlns="http://www.w3.org/2000/svg">
<path fill-rule="evenodd" clip-rule="evenodd" d="M22.2525 10.3725C22.2525 10.3725 24.2737 12.3688 24.7737 13.2925C24.7835 13.3058 24.7911 13.3206 24.7962 13.3363C25 13.6775 25.05 13.945 24.95 14.1425C24.7812 14.4688 24.21 14.6325 24.0162 14.6463H20.4437C20.195 14.6463 19.6775 14.5813 19.0475 14.1463C18.5662 13.81 18.0875 13.2563 17.6237 12.715C16.9312 11.9113 16.3325 11.2138 15.7262 11.2138C15.6497 11.2136 15.5736 11.2263 15.5012 11.2513C15.0425 11.3963 14.46 12.05 14.46 13.7913C14.46 14.3363 14.03 14.6463 13.7287 14.6463H12.0925C11.535 14.6463 8.63249 14.4513 6.05874 11.7375C2.90499 8.41501 0.0724905 1.75001 0.0449905 1.69126C-0.13126 1.26001 0.23874 1.02501 0.63874 1.02501H4.24624C4.72999 1.02501 4.88749 1.31751 4.99749 1.58001C5.12499 1.88126 5.59749 3.08626 6.37249 4.44001C7.62749 6.64251 8.39874 7.53876 9.01499 7.53876C9.13077 7.5391 9.24459 7.50892 9.34499 7.45126C10.15 7.00876 9.99999 4.13376 9.96249 3.54126C9.96249 3.42626 9.96124 2.25751 9.54874 1.69251C9.25374 1.28751 8.75124 1.13001 8.44749 1.07251C8.52874 0.95501 8.70124 0.77501 8.92249 0.66876C9.47374 0.39376 10.47 0.35376 11.4587 0.35376H12.0075C13.08 0.36876 13.3575 0.43751 13.7475 0.53626C14.5325 0.72376 14.5475 1.23251 14.4787 2.96501C14.4587 3.46001 14.4375 4.01751 14.4375 4.67376C14.4375 4.81376 14.4312 4.97001 14.4312 5.12876C14.4075 6.01751 14.3762 7.01876 15.0037 7.43001C15.0851 7.48071 15.1791 7.50756 15.275 7.50751C15.4925 7.50751 16.1437 7.50751 17.91 4.47626C18.685 3.13751 19.285 1.55876 19.3262 1.44001C19.3612 1.37376 19.4662 1.18751 19.5937 1.11251C19.6844 1.06425 19.786 1.04015 19.8887 1.04251H24.1325C24.595 1.04251 24.9087 1.11251 24.97 1.28751C25.0725 1.57126 24.95 2.43751 23.0125 5.05751C22.6862 5.49376 22.4 5.87126 22.1487 6.20126C20.3925 8.50626 20.3925 8.62251 22.2525 10.3725Z" fill="#AE0202"/>
</svg>
