<svg width="100" height="100" viewBox="0 0 100 100" fill="none" xmlns="http://www.w3.org/2000/svg">
<path d="M29.1667 87.5H70.8333V83.3333H29.1667V87.5ZM29.1667 16.6666H70.8333V12.5H29.1667V16.6666ZM20.8333 29.1666V4.16663H79.1667V29.1666H70.8333V25H29.1667V29.1666H20.8333ZM20.8333 95.8333V70.8333H29.1667V75H70.8333V70.8333H79.1667V95.8333H20.8333ZM64.1667 69.1666L58.3333 63.125L71.4583 50L58.3333 36.875L64.1667 30.8333L83.3333 50L64.1667 69.1666ZM35.8333 69.1666L16.6667 50L35.8333 30.8333L41.6667 36.875L28.5417 50L41.6667 63.125L35.8333 69.1666ZM29.1667 16.6666V12.5V16.6666ZM29.1667 87.5V83.3333V87.5Z" fill="#AE0202"/>
</svg>
