<svg width="100" height="100" viewBox="0 0 100 100" fill="none" xmlns="http://www.w3.org/2000/svg">
<path d="M50 91.6666C72.5875 91.6666 91.6667 72.5875 91.6667 50C91.6667 27.4125 72.5875 8.33331 50 8.33331C27.4125 8.33331 8.33333 27.4125 8.33333 50C8.33333 72.5875 27.4125 91.6666 50 91.6666ZM50 16.6666C68.0708 16.6666 83.3333 31.9291 83.3333 50C83.3333 68.0708 68.0708 83.3333 50 83.3333C31.9292 83.3333 16.6667 68.0708 16.6667 50C16.6667 31.9291 31.9292 16.6666 50 16.6666Z" fill="#AE0202"/>
<path d="M50 70.8334C53.7542 70.8334 60.7542 70.1334 65.4458 65.45L59.5542 59.55C57.7083 61.3959 54.1333 62.5 50 62.5C43.225 62.5 37.5 56.775 37.5 50C37.5 43.225 43.225 37.5 50 37.5C54.1375 37.5 57.7125 38.6042 59.5542 40.4459L65.4458 34.5542C60.7583 29.8667 53.7542 29.1667 50 29.1667C38.5125 29.1667 29.1667 38.5125 29.1667 50C29.1667 61.4875 38.5125 70.8334 50 70.8334Z" fill="#AE0202"/>
</svg>
