<svg width="100" height="100" viewBox="0 0 100 100" fill="none" xmlns="http://www.w3.org/2000/svg">
<g clip-path="url(#clip0_86_40)">
<path d="M21.875 68.75C21.0462 68.75 20.2513 69.0792 19.6653 69.6653C19.0792 70.2513 18.75 71.0462 18.75 71.875V78.125C18.75 78.9538 19.0792 79.7487 19.6653 80.3347C20.2513 80.9208 21.0462 81.25 21.875 81.25H78.125C78.9538 81.25 79.7487 80.9208 80.3347 80.3347C80.9208 79.7487 81.25 78.9538 81.25 78.125V71.875C81.25 71.0462 80.9208 70.2513 80.3347 69.6653C79.7487 69.0792 78.9538 68.75 78.125 68.75H21.875Z" fill="#AE0202"/>
<path d="M14.8438 6.24999C12.9018 6.24258 10.9775 6.61775 9.18052 7.35406C7.38359 8.09037 5.74927 9.17341 4.3709 10.5413C2.99253 11.9093 1.89709 13.5353 1.14713 15.3266C0.397168 17.1179 0.00737282 19.0393 0 20.9812L0 79.0187C0.00737282 80.9607 0.397168 82.8821 1.14713 84.6734C1.89709 86.4647 2.99253 88.0907 4.3709 89.4586C5.74927 90.8266 7.38359 91.9096 9.18052 92.6459C10.9775 93.3822 12.9018 93.7574 14.8438 93.75H85.1562C87.0982 93.7574 89.0225 93.3822 90.8195 92.6459C92.6164 91.9096 94.2507 90.8266 95.6291 89.4586C97.0075 88.0907 98.1029 86.4647 98.8529 84.6734C99.6028 82.8821 99.9926 80.9607 100 79.0187V20.9812C99.9926 19.0393 99.6028 17.1179 98.8529 15.3266C98.1029 13.5353 97.0075 11.9093 95.6291 10.5413C94.2507 9.17341 92.6164 8.09037 90.8195 7.35406C89.0225 6.61775 87.0982 6.24258 85.1562 6.24999H14.8438ZM6.25 20.9812C6.25 16.325 10.0688 12.5 14.8438 12.5H85.1562C89.9312 12.5 93.75 16.325 93.75 20.9812V25H6.25V20.9812ZM6.25 31.25H93.75V79.0187C93.75 83.675 89.9312 87.5 85.1562 87.5H14.8438C13.7226 87.5074 12.6109 87.2939 11.5723 86.8717C10.5336 86.4495 9.58831 85.8268 8.7903 85.0392C7.99229 84.2517 7.35722 83.3146 6.92136 82.2816C6.48549 81.2486 6.25736 80.1399 6.25 79.0187V31.25Z" fill="#AE0202"/>
</g>
<defs>
<clipPath id="clip0_86_40">
<rect width="100" height="100" fill="white"/>
</clipPath>
</defs>
</svg>
