<svg width="100" height="100" viewBox="0 0 100 100" fill="none" xmlns="http://www.w3.org/2000/svg">
<path d="M72.7125 27.8333C74.8375 25.725 74.8375 22.2916 72.7125 20.1791L64.9083 12.375L64.9208 12.3833L54.2792 1.75831C53.1323 0.646329 51.5947 0.0289942 49.9973 0.0391242C48.3998 0.0492542 46.8702 0.686039 45.7375 1.81247L1.77917 45.75C1.21692 46.3088 0.770719 46.9732 0.466237 47.7051C0.161755 48.437 0.00500488 49.2219 0.00500488 50.0146C0.00500488 50.8072 0.161755 51.5921 0.466237 52.324C0.770719 53.0559 1.21692 53.7204 1.77917 54.2791L45.7333 98.1958C46.8663 99.3281 48.4024 99.9641 50.0042 99.9641C51.6059 99.9641 53.1421 99.3281 54.275 98.1958L72.7042 79.7791C73.2083 79.277 73.6084 78.6803 73.8814 78.0232C74.1544 77.3661 74.2949 76.6615 74.2949 75.95C74.2949 75.2384 74.1544 74.5339 73.8814 73.8768C73.6084 73.2196 73.2083 72.6229 72.7042 72.1208C71.6854 71.1081 70.3073 70.5397 68.8708 70.5397C67.4344 70.5397 66.0563 71.1081 65.0375 72.1208L51.0792 86.0958C50.9449 86.2333 50.7845 86.3425 50.6074 86.417C50.4303 86.4916 50.2401 86.53 50.0479 86.53C49.8558 86.53 49.6655 86.4916 49.4884 86.417C49.3113 86.3425 49.1509 86.2333 49.0167 86.0958L13.9042 51.0166C13.7667 50.8824 13.6575 50.722 13.5829 50.5449C13.5084 50.3678 13.4699 50.1775 13.4699 49.9854C13.4699 49.7932 13.5084 49.603 13.5829 49.4259C13.6575 49.2488 13.7667 49.0884 13.9042 48.9541L49.0042 13.8708C49.0458 13.8291 49.1042 13.7958 49.15 13.75C49.4268 13.5263 49.7776 13.4149 50.1328 13.4381C50.4879 13.4612 50.8213 13.6172 51.0667 13.875L65.0417 27.8333C65.5448 28.3379 66.1426 28.7382 66.8008 29.0113C67.4589 29.2845 68.1645 29.4251 68.8771 29.4251C69.5897 29.4251 70.2952 29.2845 70.9534 29.0113C71.6115 28.7382 72.2093 28.3379 72.7125 27.8333V27.8333ZM38.3583 50.2333C38.3583 53.3789 39.6088 56.3956 41.8346 58.6199C44.0604 60.8441 47.0793 62.0937 50.2271 62.0937C53.3749 62.0937 56.3937 60.8441 58.6196 58.6199C60.8454 56.3956 62.0958 53.3789 62.0958 50.2333C62.0958 47.0877 60.8454 44.071 58.6196 41.8467C56.3937 39.6225 53.3749 38.3729 50.2271 38.3729C47.0793 38.3729 44.0604 39.6225 41.8346 41.8467C39.6088 44.071 38.3583 47.0877 38.3583 50.2333ZM98.225 45.925L84.5 32.2625C83.4805 31.2482 82.1001 30.6798 80.662 30.6821C79.2238 30.6845 77.8454 31.2573 76.8292 32.275C76.325 32.7771 75.9249 33.3738 75.652 34.0309C75.379 34.688 75.2385 35.3926 75.2385 36.1041C75.2385 36.8157 75.379 37.5202 75.652 38.1773C75.9249 38.8345 76.325 39.4312 76.8292 39.9333L86.0958 49.1916C86.6792 49.7708 86.6792 50.675 86.0958 51.2541L76.9625 60.3791C76.459 60.8812 76.0594 61.4776 75.7868 62.1344C75.5142 62.7911 75.3739 63.4952 75.3739 64.2062C75.3739 64.9173 75.5142 65.6213 75.7868 66.2781C76.0594 66.9348 76.459 67.5313 76.9625 68.0333C77.9813 69.046 79.3594 69.6144 80.7958 69.6144C82.2323 69.6144 83.6104 69.046 84.6292 68.0333L98.2292 54.45C98.7899 53.8901 99.2345 53.225 99.5377 52.4929C99.8408 51.7608 99.9965 50.976 99.9957 50.1837C99.9949 49.3913 99.8377 48.6068 99.5332 47.8753C99.2286 47.1438 98.7826 46.4796 98.2208 45.9208L98.225 45.925Z" fill="#AE0202"/>
</svg>
