<svg width="101" height="100" viewBox="0 0 101 100" fill="none" xmlns="http://www.w3.org/2000/svg">
<path d="M92.1667 37.5V29.1667H83.8333V20.8333C83.8333 18.6232 82.9554 16.5036 81.3926 14.9408C79.8298 13.378 77.7101 12.5 75.5 12.5H17.1667C14.9565 12.5 12.8369 13.378 11.2741 14.9408C9.71132 16.5036 8.83334 18.6232 8.83334 20.8333V79.1667C8.83334 81.3768 9.71132 83.4964 11.2741 85.0592C12.8369 86.622 14.9565 87.5 17.1667 87.5H75.5C77.7101 87.5 79.8298 86.622 81.3926 85.0592C82.9554 83.4964 83.8333 81.3768 83.8333 79.1667V70.8333H92.1667V62.5H83.8333V54.1667H92.1667V45.8333H83.8333V37.5H92.1667ZM75.5 79.1667H17.1667V20.8333H75.5V79.1667ZM25.5 54.1667H46.3333V70.8333H25.5V54.1667ZM50.5 29.1667H67.1667V41.6667H50.5V29.1667ZM25.5 29.1667H46.3333V50H25.5V29.1667ZM50.5 45.8333H67.1667V70.8333H50.5V45.8333Z" fill="#AE0202"/>
</svg>
