<svg width="99" height="99" viewBox="0 0 99 99" fill="none" xmlns="http://www.w3.org/2000/svg">
<path d="M82.5 16.5H16.5C11.9625 16.5 8.29125 20.2125 8.29125 24.75L8.25 74.25C8.25 78.7875 11.9625 82.5 16.5 82.5H82.5C87.0375 82.5 90.75 78.7875 90.75 74.25V24.75C90.75 20.2125 87.0375 16.5 82.5 16.5ZM16.5 37.125H59.8125V51.5625H16.5V37.125ZM16.5 59.8125H59.8125V74.25H20.625C18.3562 74.25 16.5 72.3938 16.5 70.125V59.8125ZM78.375 74.25H68.0625V37.125H82.5V70.125C82.5 72.3938 80.6437 74.25 78.375 74.25Z" fill="#AE0202"/>
</svg>
